<?xml version="1.0" encoding="utf-8"?>
<svg version="1.1" xmlns:xlink="http://www.w3.org/1999/xlink" width="56px" height="25px" xmlns="http://www.w3.org/2000/svg">
  <g transform="matrix(1 0 0 1 -1386 -15 )">
    <path d="M 1387 20  A 4 4 0 0 1 1391 16 L 1437 16  A 4 4 0 0 1 1441 20 L 1441 35  A 4 4 0 0 1 1437 39 L 1391 39  A 4 4 0 0 1 1387 35 L 1387 20  Z " fill-rule="nonzero" fill="#fff7eb" stroke="none" fill-opacity="0.996078431372549" />
    <path d="M 1386.5 20  A 4.5 4.5 0 0 1 1391 15.5 L 1437 15.5  A 4.5 4.5 0 0 1 1441.5 20 L 1441.5 35  A 4.5 4.5 0 0 1 1437 39.5 L 1391 39.5  A 4.5 4.5 0 0 1 1386.5 35 L 1386.5 20  Z " stroke-width="1" stroke="#ffb84d" fill="none" stroke-opacity="0.996078431372549" />
  </g>
</svg>