<?xml version="1.0" encoding="utf-8"?>
<svg version="1.1" xmlns:xlink="http://www.w3.org/1999/xlink" width="110px" height="35px" xmlns="http://www.w3.org/2000/svg">
  <g transform="matrix(1 0 0 1 -337 -309 )">
    <path d="M 338 314  A 4 4 0 0 1 342 310 L 442 310  A 4 4 0 0 1 446 314 L 446 339  A 4 4 0 0 1 442 343 L 342 343  A 4 4 0 0 1 338 339 L 338 314  Z " fill-rule="nonzero" fill="#f0f7ff" stroke="none" />
    <path d="M 337.5 314  A 4.5 4.5 0 0 1 342 309.5 L 442 309.5  A 4.5 4.5 0 0 1 446.5 314 L 446.5 339  A 4.5 4.5 0 0 1 442 343.5 L 342 343.5  A 4.5 4.5 0 0 1 337.5 339 L 337.5 314  Z " stroke-width="1" stroke="#7abbff" fill="none" stroke-opacity="0.996078431372549" />
  </g>
</svg>