<?xml version="1.0" encoding="utf-8"?>
<svg version="1.1" xmlns:xlink="http://www.w3.org/1999/xlink" width="235px" height="177px" xmlns="http://www.w3.org/2000/svg">
  <g transform="matrix(1 0 0 1 -591 -655 )">
    <path d="M 591 655  L 826 655  L 826 832  L 591 832  L 591 655  " fill-rule="nonzero" fill="#cccccc" stroke="none" />
    <path d="M 603 667  L 814 667  L 814 820  L 603 820  L 603 667  " fill-rule="nonzero" fill="#ffffff" stroke="none" />
    <path d="M 726.475 708.1  C 719.041 708.1  713.2 702.259  713.2 694.825  C 713.2 687.391  719.041 681.55  726.475 681.55  C 733.909 681.55  739.75 687.391  739.75 694.825  C 739.75 702.259  733.909 708.1  726.475 708.1  " fill-rule="nonzero" fill="#cccccc" stroke="none" />
    <path d="M 608 816  L 608 736.8  L 658.5 700.8  L 729.2 750.924255319149  L 769.6 722.4  L 810 750.924255319149  L 810 816  L 608 816  " fill-rule="nonzero" fill="#169bd5" stroke="none" />
  </g>
</svg>