<?xml version="1.0" encoding="utf-8"?>
<svg version="1.1" xmlns:xlink="http://www.w3.org/1999/xlink" width="150px" height="40px" xmlns="http://www.w3.org/2000/svg">
  <defs>
    <mask fill="white" id="clip9">
      <path d="M 0 40  L 0 0  L 52.5714285714286 0  L 150 0  L 150 40  L 84.3174603174618 40  L 0 40  Z " fill-rule="evenodd" />
    </mask>
  </defs>
  <g transform="matrix(1 0 0 1 -826 -397 )">
    <path d="M 0 40  L 0 0  L 52.5714285714286 0  L 150 0  L 150 40  L 84.3174603174618 40  L 0 40  Z " fill-rule="nonzero" fill="#ffffff" stroke="none" transform="matrix(1 0 0 1 826 397 )" />
    <path d="M 0 40  L 0 0  L 52.5714285714286 0  L 150 0  L 150 40  L 84.3174603174618 40  L 0 40  Z " stroke-width="2" stroke="#797979" fill="none" transform="matrix(1 0 0 1 826 397 )" mask="url(#clip9)" />
  </g>
</svg>