<?xml version="1.0" encoding="utf-8"?>
<svg version="1.1" xmlns:xlink="http://www.w3.org/1999/xlink" width="80px" height="30px" xmlns="http://www.w3.org/2000/svg">
  <g transform="matrix(1 0 0 1 -410 -565 )">
    <path d="M 411 568  A 2 2 0 0 1 413 566 L 487 566  A 2 2 0 0 1 489 568 L 489 592  A 2 2 0 0 1 487 594 L 413 594  A 2 2 0 0 1 411 592 L 411 568  Z " fill-rule="nonzero" fill="#f0f7ff" stroke="none" />
    <path d="M 410.5 568  A 2.5 2.5 0 0 1 413 565.5 L 487 565.5  A 2.5 2.5 0 0 1 489.5 568 L 489.5 592  A 2.5 2.5 0 0 1 487 594.5 L 413 594.5  A 2.5 2.5 0 0 1 410.5 592 L 410.5 568  Z " stroke-width="1" stroke="#7abbff" fill="none" stroke-opacity="0.996078431372549" />
  </g>
</svg>