<?xml version="1.0" encoding="utf-8"?>
<svg version="1.1" xmlns:xlink="http://www.w3.org/1999/xlink" width="80px" height="35px" xmlns="http://www.w3.org/2000/svg">
  <g transform="matrix(1 0 0 1 -210 -300 )">
    <path d="M 211 305  A 4 4 0 0 1 215 301 L 285 301  A 4 4 0 0 1 289 305 L 289 330  A 4 4 0 0 1 285 334 L 215 334  A 4 4 0 0 1 211 330 L 211 305  Z " fill-rule="nonzero" fill="#f0f7ff" stroke="none" />
    <path d="M 210.5 305  A 4.5 4.5 0 0 1 215 300.5 L 285 300.5  A 4.5 4.5 0 0 1 289.5 305 L 289.5 330  A 4.5 4.5 0 0 1 285 334.5 L 215 334.5  A 4.5 4.5 0 0 1 210.5 330 L 210.5 305  Z " stroke-width="1" stroke="#7abbff" fill="none" stroke-opacity="0.996078431372549" />
  </g>
</svg>